<?xml version="1.0" encoding="UTF-8"?>
<!DOCTYPE svg PUBLIC "-//W3C//DTD SVG 1.1//EN" "http://www.w3.org/Graphics/SVG/1.1/DTD/svg11.dtd">
<!-- Creator: CorelDRAW -->
<svg xmlns="http://www.w3.org/2000/svg" xml:space="preserve" width="84.6666mm" height="84.6666mm" version="1.1" style="shape-rendering:geometricPrecision; text-rendering:geometricPrecision; image-rendering:optimizeQuality; fill-rule:evenodd; clip-rule:evenodd"
viewBox="0 0 8466.66 8466.66"
 xmlns:xlink="http://www.w3.org/1999/xlink"
 xmlns:xodm="http://www.corel.com/coreldraw/odm/2003">
 <defs>
  <style type="text/css">
   <![CDATA[
    .fil0 {fill:none}
    .fil1 {fill:#0084D1}
   ]]>
  </style>
 </defs>
 <g id="Layer_x0020_1">
  <metadata id="CorelCorpID_0Corel-Layer"/>
  <rect class="fil0" x="3149.59" y="3149.59" width="2167.47" height="2167.47"/>
  <path class="fil1" d="M5000.58 4870.58c-72.82,57.98 -152.09,110 -237.62,154.77 -537.25,281.18 -1167.86,200.51 -1613.38,-154.67 152.37,-360.65 509.38,-613.75 925.52,-613.75 416.09,0 773.08,253.05 925.48,613.65zm214.62 -449.02c17.45,-28.5 32.51,-54.59 49.86,-87.76 17.36,-33.17 36.27,-73.03 51.99,-110.09l-639.91 -334.9 -34.4 65.72 -97.27 -50.91 -34.4 65.72 97.28 50.9 -34.39 65.72 641.24 335.6zm-962.23 -370.65c-187.7,98.24 -419.51,25.7 -517.75,-162.01 -98.24,-187.7 -25.71,-419.51 162,-517.75l32.23 61.59c-153.69,80.44 -213.08,270.24 -132.64,423.93 80.43,153.7 270.24,213.08 423.93,132.65l32.23 61.59zm-177.87 -778.98c-242.51,0 -439.1,196.59 -439.1,439.1 0,242.51 196.59,439.1 439.1,439.1 242.51,0 439.1,-196.59 439.1,-439.1 0,-242.51 -196.59,-439.1 -439.1,-439.1z"/>
 </g>
</svg>
